
<svg width="152" height="152" viewBox="0 0 152 152" xmlns="http://www.w3.org/2000/svg">
  <defs>
    <linearGradient id="bgGradient" x1="0%" y1="0%" x2="100%" y2="100%">
      <stop offset="0%" stop-color="#FF6B9D"/>
      <stop offset="50%" stop-color="#FF8E9E"/>
      <stop offset="100%" stop-color="#FFB199"/>
    </linearGradient>
    <linearGradient id="heartGradient" x1="0%" y1="0%" x2="100%" y2="100%">
      <stop offset="0%" stop-color="#FF4757"/>
      <stop offset="100%" stop-color="#FF6B9D"/>
    </linearGradient>
    <linearGradient id="diceGradient" x1="0%" y1="0%" x2="100%" y2="100%">
      <stop offset="0%" stop-color="#3B82F6"/>
      <stop offset="100%" stop-color="#8B5CF6"/>
    </linearGradient>
    <filter id="shadow">
      <feDropShadow dx="0" dy="2" stdDeviation="4" flood-color="#000000" flood-opacity="0.1"/>
    </filter>
  </defs>
  
  <!-- Background -->
  <rect width="152" height="152" rx="38" fill="url(#bgGradient)"/>
  
  <!-- Decorative dots -->
  <circle cx="30.400000000000002" cy="30.400000000000002" r="3.04" fill="rgba(255,255,255,0.3)"/>
  <circle cx="121.60000000000001" cy="30.400000000000002" r="2.28" fill="rgba(255,255,255,0.2)"/>
  <circle cx="30.400000000000002" cy="121.60000000000001" r="2.28" fill="rgba(255,255,255,0.2)"/>
  <circle cx="121.60000000000001" cy="121.60000000000001" r="3.04" fill="rgba(255,255,255,0.3)"/>
  
  <!-- Main icons group -->
  <g transform="translate(76, 76)">
    <!-- Heart (top left) -->
    <g transform="translate(-19.76, -19.76)">
      <path d="M9.12 16.72l-1.064 -1.064C4.104 12.16 1.52 9.576 1.52 6.688 1.52 4.256 3.344 2.28 5.776 2.28c1.3679999999999999 0 2.584 0.608 3.496 1.672C10.032 3.04 11.248 2.28 12.616000000000001 2.28 15.048 2.28 16.72 4.256 16.72 6.688c0 2.888 -2.584 5.4719999999999995 -6.536 8.968L9.12 16.72z" fill="url(#heartGradient)" filter="url(#shadow)"/>
    </g>
    
    <!-- Dice (bottom right) -->
    <g transform="translate(12.16, 12.16)">
      <rect x="0" y="0" width="15.200000000000001" height="15.200000000000001" rx="3.04" fill="url(#diceGradient)" filter="url(#shadow)"/>
      <!-- Dice dots (6) -->
      <circle cx="4.56" cy="4.56" r="1.216" fill="white"/>
      <circle cx="10.64" cy="4.56" r="1.216" fill="white"/>
      <circle cx="4.56" cy="7.6000000000000005" r="1.216" fill="white"/>
      <circle cx="10.64" cy="7.6000000000000005" r="1.216" fill="white"/>
      <circle cx="4.56" cy="10.64" r="1.216" fill="white"/>
      <circle cx="10.64" cy="10.64" r="1.216" fill="white"/>
    </g>
    
    <!-- Couple icons (center) -->
    <g transform="translate(-7.6000000000000005, -3.8000000000000003)">
      <!-- Male -->
      <circle cx="0" cy="-3.8000000000000003" r="4.56" fill="#FFB199" stroke="#FF8E9E" stroke-width="0.76"/>
      <rect x="-3.04" y="0.76" width="6.08" height="7.6000000000000005" rx="1.52" fill="#3B82F6"/>
      
      <!-- Female -->
      <circle cx="9.12" cy="-3.8000000000000003" r="4.56" fill="#FFB199" stroke="#FF8E9E" stroke-width="0.76"/>
      <rect x="6.08" y="0.76" width="6.08" height="7.6000000000000005" rx="1.52" fill="#FF6B9D"/>
      
      <!-- Connecting heart -->
      <circle cx="4.56" cy="-1.52" r="2.28" fill="#FF4757"/>
    </g>
  </g>
  
  <!-- Decorative stars -->
  <path d="M38 22.8 L39.52 28.88 L45.6 28.88 L41.040000000000006 31.919999999999998 L42.56 36.48 L38 33.44 L33.44 36.48 L34.96 31.919999999999998 L30.400000000000002 28.88 L36.48 28.88 Z" fill="rgba(255,255,255,0.4)"/>
  <path d="M110.96 126.16 L112.48 132.24 L117.04 132.24 L113.24 134.52 L114.76 139.84 L110.96 136.04 L107.16 139.84 L108.67999999999999 134.52 L104.88 132.24 L109.44 132.24 Z" fill="rgba(255,255,255,0.4)"/>
</svg>