
<svg width="512" height="512" viewBox="0 0 512 512" xmlns="http://www.w3.org/2000/svg">
  <defs>
    <linearGradient id="bgGradient" x1="0%" y1="0%" x2="100%" y2="100%">
      <stop offset="0%" stop-color="#FF6B9D"/>
      <stop offset="50%" stop-color="#FF8E9E"/>
      <stop offset="100%" stop-color="#FFB199"/>
    </linearGradient>
    <linearGradient id="heartGradient" x1="0%" y1="0%" x2="100%" y2="100%">
      <stop offset="0%" stop-color="#FF4757"/>
      <stop offset="100%" stop-color="#FF6B9D"/>
    </linearGradient>
    <linearGradient id="diceGradient" x1="0%" y1="0%" x2="100%" y2="100%">
      <stop offset="0%" stop-color="#3B82F6"/>
      <stop offset="100%" stop-color="#8B5CF6"/>
    </linearGradient>
    <filter id="shadow">
      <feDropShadow dx="0" dy="2" stdDeviation="4" flood-color="#000000" flood-opacity="0.1"/>
    </filter>
  </defs>
  
  <!-- Background -->
  <rect width="512" height="512" rx="128" fill="url(#bgGradient)"/>
  
  <!-- Decorative dots -->
  <circle cx="102.4" cy="102.4" r="10.24" fill="rgba(255,255,255,0.3)"/>
  <circle cx="409.6" cy="102.4" r="7.68" fill="rgba(255,255,255,0.2)"/>
  <circle cx="102.4" cy="409.6" r="7.68" fill="rgba(255,255,255,0.2)"/>
  <circle cx="409.6" cy="409.6" r="10.24" fill="rgba(255,255,255,0.3)"/>
  
  <!-- Main icons group -->
  <g transform="translate(256, 256)">
    <!-- Heart (top left) -->
    <g transform="translate(-66.56, -66.56)">
      <path d="M30.72 56.32l-3.584 -3.584C13.824 40.96 5.12 32.256 5.12 22.528 5.12 14.336 11.264 7.68 19.456 7.68c4.608 0 8.704 2.048 11.776 5.632C33.792 10.24 37.888 7.68 42.496 7.68 50.688 7.68 56.32 14.336 56.32 22.528c0 9.728 -8.704 18.432 -22.016 30.208L30.72 56.32z" fill="url(#heartGradient)" filter="url(#shadow)"/>
    </g>
    
    <!-- Dice (bottom right) -->
    <g transform="translate(40.96, 40.96)">
      <rect x="0" y="0" width="51.2" height="51.2" rx="10.24" fill="url(#diceGradient)" filter="url(#shadow)"/>
      <!-- Dice dots (6) -->
      <circle cx="15.36" cy="15.36" r="4.096" fill="white"/>
      <circle cx="35.84" cy="15.36" r="4.096" fill="white"/>
      <circle cx="15.36" cy="25.6" r="4.096" fill="white"/>
      <circle cx="35.84" cy="25.6" r="4.096" fill="white"/>
      <circle cx="15.36" cy="35.84" r="4.096" fill="white"/>
      <circle cx="35.84" cy="35.84" r="4.096" fill="white"/>
    </g>
    
    <!-- Couple icons (center) -->
    <g transform="translate(-25.6, -12.8)">
      <!-- Male -->
      <circle cx="0" cy="-12.8" r="15.36" fill="#FFB199" stroke="#FF8E9E" stroke-width="2.56"/>
      <rect x="-10.24" y="2.56" width="20.48" height="25.6" rx="5.12" fill="#3B82F6"/>
      
      <!-- Female -->
      <circle cx="30.72" cy="-12.8" r="15.36" fill="#FFB199" stroke="#FF8E9E" stroke-width="2.56"/>
      <rect x="20.48" y="2.56" width="20.48" height="25.6" rx="5.12" fill="#FF6B9D"/>
      
      <!-- Connecting heart -->
      <circle cx="15.36" cy="-5.12" r="7.68" fill="#FF4757"/>
    </g>
  </g>
  
  <!-- Decorative stars -->
  <path d="M128 76.8 L133.12 97.28 L153.6 97.28 L138.24 107.52 L143.36 122.88 L128 112.64 L112.64 122.88 L117.76 107.52 L102.4 97.28 L122.88 97.28 Z" fill="rgba(255,255,255,0.4)"/>
  <path d="M373.76 424.96 L378.88 445.44 L394.24 445.44 L381.44 453.12 L386.56 471.04 L373.76 458.24 L360.96 471.04 L366.08 453.12 L353.28 445.44 L368.64 445.44 Z" fill="rgba(255,255,255,0.4)"/>
</svg>